# xmcd CD database file
#
# Track frame offsets:
#	150
#	17700
#	35700
#	51425
#	72000
#	94500
#	113700
#	144977
#	163050
#	183262
#	205350
#	225600
#	250350
#	266325
#	283525
#
# Disc length: 4053 seconds
#
# Revision: 2
# Processed by: cddbd v1.4b41PL1 Copyright (c) Steve Scherf et al.
# Submitted via: Feurio! 1.50.2ß - http://www.feurio.com
#
DISCID=d10fd30f
DTITLE=Various Artist - Liebe Auf Dem Ersten Blick
DYEAR=1900
DGENRE=
TTITLE0=Cock Robin - The Promise You Made
TTITLE1=Cyndi Lauper - Time After Time
TTITLE2=Fiction Factory - (Feels) Like Heaven
TTITLE3=Terence Trent D'arby - Sign Your Name
TTITLE4=Sade - Smooth Operator
TTITLE5=Münchener Freiheit - Liebe Auf Dem Ersten Blick
TTITLE6=Bonnie Tyler - Total Eclipse Of My Heart
TTITLE7=Bros - Cat Among The Pigeons
TTITLE8=Toto - Stop Loving You
TTITLE9=George Michael - Carless Whisper
TTITLE10=Earth, Wind and Fire - After The Love Has Gone
TTITLE11=Chimes - I Still Haven't Found What I'm Looking For
TTITLE12=Ten Sharp - You
TTITLE13=Bangles - Eternal Flame
TTITLE14=Champaign - How 'Bous Us
EXTD=8800056 (c) Arcade
EXTT0=
EXTT1=
EXTT2=
EXTT3=
EXTT4=
EXTT5=
EXTT6=
EXTT7=
EXTT8=
EXTT9=
EXTT10=
EXTT11=
EXTT12=
EXTT13=
EXTT14=
PLAYORDER=
